<?xml version="1.0" standalone="no"?>
<!DOCTYPE svg PUBLIC "-//W3C//DTD SVG 20010904//EN"
 "http://www.w3.org/TR/2001/REC-SVG-20010904/DTD/svg10.dtd">
<svg version="1.0" xmlns="http://www.w3.org/2000/svg"
 width="700.000000pt" height="700.000000pt" viewBox="0 0 700.000000 700.000000"
 preserveAspectRatio="xMidYMid meet">
<metadata>
Created by potrace 1.11, written by Peter Selinger 2001-2013
</metadata>
<g transform="translate(0.000000,700.000000) scale(0.100000,-0.100000)"
fill="#000000" stroke="none">
<path d="M3444 6479 c-11 -6 -29 -24 -39 -42 -17 -29 -18 -93 -18 -1459 l0
-1428 -26 -1 c-14 0 -35 -2 -46 -4 -11 -2 -45 -7 -75 -10 -135 -14 -354 -76
-490 -137 l-75 -34 -75 13 c-41 7 -94 15 -118 17 -23 3 -55 7 -70 10 -25 5
-125 14 -237 22 -78 5 -445 5 -495 -1 -25 -3 -85 -10 -135 -15 -391 -45 -755
-179 -1040 -384 -137 -99 -278 -238 -381 -377 -113 -151 -119 -164 -118 -241
0 -59 4 -73 31 -110 75 -104 220 -118 309 -30 15 15 48 59 74 97 197 289 515
494 916 591 133 32 132 32 269 49 95 12 199 17 350 15 94 -1 185 -2 203 -2 41
-1 40 -14 -1 -58 -64 -68 -155 -216 -202 -330 -15 -36 -30 -69 -34 -73 -4 -4
-30 -10 -57 -13 -212 -21 -329 -42 -454 -79 -30 -9 -64 -18 -74 -20 -45 -10
-169 -61 -271 -112 -264 -131 -463 -301 -642 -551 -119 -167 -144 -242 -108
-330 43 -102 165 -152 266 -109 48 21 71 45 135 145 242 374 598 584 1082 638
l62 7 1 -39 c0 -22 2 -48 4 -59 2 -11 7 -40 10 -65 7 -56 28 -137 54 -213 15
-43 17 -59 8 -61 -7 -2 -50 -14 -97 -26 -94 -25 -200 -65 -293 -111 -59 -30
-196 -115 -207 -128 -3 -3 -23 -19 -45 -36 -108 -80 -265 -263 -357 -415 -94
-156 -112 -199 -113 -270 0 -56 4 -71 30 -109 71 -105 221 -122 308 -36 14 15
50 71 78 124 29 53 55 98 58 101 3 3 24 32 46 65 57 84 190 212 287 277 124
82 303 152 443 172 22 3 57 9 78 12 36 6 41 3 92 -49 236 -242 607 -425 955
-473 25 -3 68 -10 95 -14 68 -12 418 -5 480 8 28 6 66 14 85 16 19 3 71 15
115 26 301 78 559 221 773 429 68 67 60 65 182 45 137 -22 319 -93 436 -170
76 -51 201 -164 253 -229 42 -54 128 -189 160 -252 17 -34 43 -74 58 -88 90
-85 235 -69 308 34 26 37 30 51 30 109 -1 56 -6 78 -34 132 -174 338 -404 575
-696 720 -142 71 -351 142 -387 132 -11 -3 -10 2 7 45 15 41 43 136 50 174 14
74 23 138 24 188 l1 33 53 -6 c28 -3 61 -7 72 -10 11 -2 40 -7 65 -11 67 -10
173 -40 275 -75 281 -99 512 -284 681 -547 61 -94 86 -120 133 -140 67 -29
164 -11 220 40 54 50 74 142 48 217 -13 36 -123 207 -173 270 -96 119 -303
303 -433 385 -187 116 -485 225 -716 261 -27 5 -52 9 -55 9 -3 1 -41 5 -85 9
-105 10 -139 16 -147 24 -3 4 -18 35 -32 69 -41 98 -131 250 -186 313 -63 74
-60 69 -42 74 20 5 123 9 267 9 557 2 1021 -160 1325 -463 106 -105 119 -121
177 -206 81 -118 130 -149 227 -141 125 11 209 126 178 243 -34 126 -303 437
-488 564 -219 150 -399 238 -619 301 -93 27 -259 65 -315 73 -25 3 -54 8 -65
10 -28 5 -152 18 -205 22 -68 4 -439 4 -485 -1 -22 -2 -69 -6 -105 -9 -91 -8
-156 -15 -188 -20 -15 -3 -47 -8 -72 -11 -25 -4 -61 -10 -82 -14 -24 -6 -46
-4 -65 4 -92 43 -139 61 -233 90 -136 42 -319 77 -451 85 -3 0 -6 624 -7 1388
0 763 -1 1409 -1 1436 -1 41 -6 53 -35 82 -27 27 -42 34 -72 33 -22 0 -48 -5
-60 -10z m-648 -3691 c-19 -31 -14 -98 10 -130 57 -78 173 -67 214 20 8 17 19
32 24 32 23 0 104 -120 113 -168 14 -74 -9 -140 -59 -171 -13 -8 -52 -16 -88
-17 -53 -2 -76 3 -125 26 -143 66 -237 202 -220 316 9 62 63 109 128 113 16 1
16 -1 3 -21z m1463 6 c56 -22 75 -56 76 -129 0 -236 -386 -425 -484 -237 -12
22 -16 81 -8 112 14 56 89 170 112 170 5 0 17 -15 25 -32 45 -96 181 -96 224
0 18 41 16 92 -6 120 -15 17 12 16 61 -4z"/>
</g>
</svg>
