<?xml version="1.0" encoding="iso-8859-1"?>
<!-- Generator: Adobe Illustrator 16.0.0, SVG Export Plug-In . SVG Version: 6.00 Build 0)  -->
<!DOCTYPE svg PUBLIC "-//W3C//DTD SVG 1.1//EN" "http://www.w3.org/Graphics/SVG/1.1/DTD/svg11.dtd">
<svg version="1.1" id="Capa_1" xmlns="http://www.w3.org/2000/svg" xmlns:xlink="http://www.w3.org/1999/xlink" x="0px" y="0px"
	 width="240.99px" height="240.99px" viewBox="0 0 240.99 240.99" style="enable-background:new 0 0 240.99 240.99;"
	 xml:space="preserve">
<g>
	<path d="M239.917,154.259c-13.171-21.002-36.39-31.863-67.169-31.466c-8.807,0.121-17,1.144-23.755,2.354
		c-7.312-3.629-15.669-5.903-24.599-6.421V21.342c0-2.154-1.746-3.9-3.899-3.9s-3.899,1.746-3.899,3.9v97.385
		c-8.931,0.518-17.287,2.793-24.6,6.422c-6.754-1.213-14.947-2.234-23.754-2.355c-30.771-0.408-53.998,10.463-67.169,31.465
		c-2.06,3.285-1.067,7.617,2.218,9.676c1.159,0.728,2.448,1.072,3.723,1.072c2.336,0,4.621-1.164,5.953-3.291
		c14.367-22.91,41.6-26.102,62.799-24.471c-4.308,4.723-7.602,10.145-9.6,16.031c-24.961,1.314-43.889,12.15-54.975,31.586
		c-1.92,3.367-0.747,7.656,2.621,9.574c1.097,0.627,2.291,0.926,3.471,0.926c2.438,0,4.809-1.273,6.104-3.543
		c8.271-14.504,21.892-22.676,40.591-24.33c0.117,5.262,1.229,10.318,3.191,15.035c-17.149,3.395-30.242,13.932-38.29,31.01
		c-1.652,3.508-0.148,7.689,3.357,9.344c0.967,0.455,1.985,0.67,2.987,0.67c2.634,0,5.158-1.488,6.354-4.029
		c8.028-17.037,21.27-22.896,33.83-24.012c10.324,11.557,26.676,19.025,45.087,19.025c18.411,0,34.763-7.469,45.086-19.023
		c12.561,1.115,25.804,6.974,33.83,24.01c1.196,2.541,3.722,4.029,6.354,4.029c1.003,0,2.021-0.215,2.986-0.67
		c3.507-1.654,5.011-5.836,3.357-9.344c-8.05-17.082-21.131-27.611-38.291-31.004c1.955-4.699,3.064-9.732,3.189-14.973
		c15.258,1.408,31.047,7.521,40.594,24.262c1.295,2.27,3.665,3.543,6.104,3.543c1.18-0.002,2.375-0.299,3.472-0.926
		c3.367-1.918,4.541-6.207,2.62-9.574c-11.087-19.436-30.023-30.266-54.975-31.584c-2.003-5.904-5.309-11.34-9.634-16.072
		c21.188-1.652,48.421,1.529,62.833,24.51c1.333,2.127,3.617,3.291,5.953,3.291c1.273,0,2.563-0.346,3.723-1.072
		C240.984,161.875,241.977,157.543,239.917,154.259z M107.893,158.316c-2.257,2.799-7.512,2.303-11.737-1.105
		c-4.226-3.409-5.823-8.438-3.565-11.235c0.943-1.17,2.416-1.758,4.113-1.803c-0.619,0.762-0.992,1.733-0.992,2.793
		c0,2.446,1.984,4.43,4.432,4.43c2.34,0,4.252-1.814,4.414-4.113C108.604,150.683,110.105,155.574,107.893,158.316z
		 M144.834,157.211c-4.226,3.408-9.479,3.904-11.735,1.105c-2.213-2.742-0.712-7.634,3.336-11.035
		c0.162,2.299,2.074,4.112,4.414,4.112c2.446,0,4.432-1.981,4.432-4.43c0-1.059-0.373-2.031-0.994-2.793
		c1.699,0.045,3.172,0.633,4.115,1.803C150.658,148.771,149.061,153.802,144.834,157.211z"/>
</g>
<g>
</g>
<g>
</g>
<g>
</g>
<g>
</g>
<g>
</g>
<g>
</g>
<g>
</g>
<g>
</g>
<g>
</g>
<g>
</g>
<g>
</g>
<g>
</g>
<g>
</g>
<g>
</g>
<g>
</g>
</svg>
